<mxfile host="app.diagrams.net" agent="Mozilla/5.0 (Macintosh; Intel Mac OS X 10_15_7) AppleWebKit/537.36 (KHTML, like Gecko) Chrome/128.0.0.0 Safari/537.36" version="24.7.8">
  <diagram name="Page-1" id="Y-cD72wbh6zRBrMIaW-u">
    <mxGraphModel dx="855" dy="580" grid="1" gridSize="10" guides="1" tooltips="1" connect="1" arrows="1" fold="1" page="1" pageScale="1" pageWidth="827" pageHeight="1169" math="0" shadow="0">
      <root>
        <mxCell id="0" />
        <mxCell id="1" parent="0" />
        <mxCell id="CVVGBSWZRVMv5-ygpTuM-3" value="" style="edgeStyle=orthogonalEdgeStyle;rounded=0;orthogonalLoop=1;jettySize=auto;html=1;entryX=0.25;entryY=0;entryDx=0;entryDy=0;" edge="1" parent="1" source="CVVGBSWZRVMv5-ygpTuM-1" target="CVVGBSWZRVMv5-ygpTuM-2">
          <mxGeometry relative="1" as="geometry" />
        </mxCell>
        <mxCell id="CVVGBSWZRVMv5-ygpTuM-19" value="Définit les compétences&lt;div style=&quot;font-size: 11px;&quot;&gt;à acquérir&amp;nbsp;&lt;/div&gt;&lt;div style=&quot;font-size: 11px;&quot;&gt;pour les traiter&lt;/div&gt;" style="edgeLabel;html=1;align=center;verticalAlign=middle;resizable=0;points=[];fontSize=11;" vertex="1" connectable="0" parent="CVVGBSWZRVMv5-ygpTuM-3">
          <mxGeometry x="0.25" relative="1" as="geometry">
            <mxPoint y="12" as="offset" />
          </mxGeometry>
        </mxCell>
        <mxCell id="CVVGBSWZRVMv5-ygpTuM-1" value="Personne" style="shape=umlActor;verticalLabelPosition=bottom;verticalAlign=top;html=1;outlineConnect=0;" vertex="1" parent="1">
          <mxGeometry x="370" y="80" width="30" height="60" as="geometry" />
        </mxCell>
        <mxCell id="CVVGBSWZRVMv5-ygpTuM-2" value="Données" style="whiteSpace=wrap;html=1;verticalAlign=middle;fontSize=17;" vertex="1" parent="1">
          <mxGeometry x="90" y="320" width="120" height="60" as="geometry" />
        </mxCell>
        <mxCell id="CVVGBSWZRVMv5-ygpTuM-6" value="" style="edgeStyle=orthogonalEdgeStyle;rounded=0;orthogonalLoop=1;jettySize=auto;html=1;exitX=0.85;exitY=-0.05;exitDx=0;exitDy=0;exitPerimeter=0;" edge="1" parent="1" source="CVVGBSWZRVMv5-ygpTuM-2">
          <mxGeometry relative="1" as="geometry">
            <mxPoint x="380" y="120" as="sourcePoint" />
            <mxPoint x="360" y="130" as="targetPoint" />
            <Array as="points">
              <mxPoint x="192" y="130" />
            </Array>
          </mxGeometry>
        </mxCell>
        <mxCell id="CVVGBSWZRVMv5-ygpTuM-18" value="Décide de l&#39;importance&lt;br style=&quot;font-size: 11px;&quot;&gt;des données" style="edgeLabel;html=1;align=center;verticalAlign=middle;resizable=0;points=[];fontSize=11;" vertex="1" connectable="0" parent="CVVGBSWZRVMv5-ygpTuM-6">
          <mxGeometry x="-0.4845" y="-1" relative="1" as="geometry">
            <mxPoint y="1" as="offset" />
          </mxGeometry>
        </mxCell>
        <mxCell id="CVVGBSWZRVMv5-ygpTuM-7" value="" style="edgeStyle=orthogonalEdgeStyle;rounded=0;orthogonalLoop=1;jettySize=auto;html=1;entryX=0.25;entryY=0;entryDx=0;entryDy=0;" edge="1" parent="1" target="CVVGBSWZRVMv5-ygpTuM-8">
          <mxGeometry relative="1" as="geometry">
            <mxPoint x="410" y="130" as="sourcePoint" />
          </mxGeometry>
        </mxCell>
        <mxCell id="CVVGBSWZRVMv5-ygpTuM-14" value="&lt;font style=&quot;font-size: 11px;&quot;&gt;Aide à concevoir&lt;br style=&quot;font-size: 11px;&quot;&gt;la technologie&amp;nbsp;&lt;br style=&quot;font-size: 11px;&quot;&gt;puis l&#39;utilise&lt;/font&gt;" style="edgeLabel;html=1;align=center;verticalAlign=middle;resizable=0;points=[];fontSize=11;" vertex="1" connectable="0" parent="CVVGBSWZRVMv5-ygpTuM-7">
          <mxGeometry x="0.3803" y="1" relative="1" as="geometry">
            <mxPoint x="-11" as="offset" />
          </mxGeometry>
        </mxCell>
        <mxCell id="CVVGBSWZRVMv5-ygpTuM-8" value="Technologies" style="whiteSpace=wrap;html=1;verticalAlign=middle;fontSize=17;" vertex="1" parent="1">
          <mxGeometry x="550" y="320" width="120" height="60" as="geometry" />
        </mxCell>
        <mxCell id="CVVGBSWZRVMv5-ygpTuM-9" value="" style="edgeStyle=orthogonalEdgeStyle;rounded=0;orthogonalLoop=1;jettySize=auto;html=1;exitX=0.85;exitY=-0.025;exitDx=0;exitDy=0;exitPerimeter=0;" edge="1" parent="1" source="CVVGBSWZRVMv5-ygpTuM-8">
          <mxGeometry relative="1" as="geometry">
            <mxPoint x="682" y="307" as="sourcePoint" />
            <mxPoint x="410" y="110" as="targetPoint" />
            <Array as="points">
              <mxPoint x="650" y="319" />
              <mxPoint x="650" y="110" />
            </Array>
          </mxGeometry>
        </mxCell>
        <mxCell id="CVVGBSWZRVMv5-ygpTuM-15" value="&lt;font style=&quot;font-size: 11px;&quot;&gt;Aide l&#39;individu&lt;/font&gt;" style="edgeLabel;html=1;align=center;verticalAlign=middle;resizable=0;points=[];fontSize=11;" vertex="1" connectable="0" parent="CVVGBSWZRVMv5-ygpTuM-9">
          <mxGeometry x="-0.3532" y="2" relative="1" as="geometry">
            <mxPoint x="12" y="86" as="offset" />
          </mxGeometry>
        </mxCell>
        <mxCell id="CVVGBSWZRVMv5-ygpTuM-10" value="Processus" style="whiteSpace=wrap;html=1;verticalAlign=middle;fontSize=17;" vertex="1" parent="1">
          <mxGeometry x="320" y="320" width="120" height="60" as="geometry" />
        </mxCell>
        <mxCell id="CVVGBSWZRVMv5-ygpTuM-11" value="" style="edgeStyle=orthogonalEdgeStyle;rounded=0;orthogonalLoop=1;jettySize=auto;html=1;exitX=0.25;exitY=0;exitDx=0;exitDy=0;" edge="1" parent="1" source="CVVGBSWZRVMv5-ygpTuM-10">
          <mxGeometry relative="1" as="geometry">
            <mxPoint x="202" y="327" as="sourcePoint" />
            <mxPoint x="370" y="140" as="targetPoint" />
            <Array as="points">
              <mxPoint x="350" y="140" />
            </Array>
          </mxGeometry>
        </mxCell>
        <mxCell id="CVVGBSWZRVMv5-ygpTuM-17" value="Définit&amp;nbsp;&lt;br style=&quot;font-size: 11px;&quot;&gt;le rôle &lt;br style=&quot;font-size: 11px;&quot;&gt;et les compétences&lt;br style=&quot;font-size: 11px;&quot;&gt;nécessaires à chacun" style="edgeLabel;html=1;align=center;verticalAlign=middle;resizable=0;points=[];fontSize=11;" vertex="1" connectable="0" parent="CVVGBSWZRVMv5-ygpTuM-11">
          <mxGeometry x="-0.345" y="-1" relative="1" as="geometry">
            <mxPoint y="1" as="offset" />
          </mxGeometry>
        </mxCell>
        <mxCell id="CVVGBSWZRVMv5-ygpTuM-12" value="" style="edgeStyle=orthogonalEdgeStyle;rounded=0;orthogonalLoop=1;jettySize=auto;html=1;exitX=0.825;exitY=-0.033;exitDx=0;exitDy=0;exitPerimeter=0;entryX=1;entryY=1;entryDx=0;entryDy=0;entryPerimeter=0;endArrow=none;endFill=0;startArrow=classic;startFill=1;" edge="1" parent="1" source="CVVGBSWZRVMv5-ygpTuM-10" target="CVVGBSWZRVMv5-ygpTuM-1">
          <mxGeometry relative="1" as="geometry">
            <mxPoint x="360" y="330" as="sourcePoint" />
            <mxPoint x="380" y="150" as="targetPoint" />
            <Array as="points">
              <mxPoint x="419" y="140" />
            </Array>
          </mxGeometry>
        </mxCell>
        <mxCell id="CVVGBSWZRVMv5-ygpTuM-16" value="Aide à concevoir&lt;br style=&quot;font-size: 11px;&quot;&gt;le processus&lt;br style=&quot;font-size: 11px;&quot;&gt;puis l&#39;utilise" style="edgeLabel;html=1;align=center;verticalAlign=middle;resizable=0;points=[];fontSize=11;" vertex="1" connectable="0" parent="CVVGBSWZRVMv5-ygpTuM-12">
          <mxGeometry x="-0.0304" relative="1" as="geometry">
            <mxPoint y="-32" as="offset" />
          </mxGeometry>
        </mxCell>
        <mxCell id="CVVGBSWZRVMv5-ygpTuM-20" value="" style="shape=flexArrow;endArrow=classic;startArrow=classic;html=1;rounded=0;entryX=0;entryY=0.5;entryDx=0;entryDy=0;" edge="1" parent="1" target="CVVGBSWZRVMv5-ygpTuM-8">
          <mxGeometry width="100" height="100" relative="1" as="geometry">
            <mxPoint x="440" y="350" as="sourcePoint" />
            <mxPoint x="410" y="250" as="targetPoint" />
          </mxGeometry>
        </mxCell>
        <mxCell id="CVVGBSWZRVMv5-ygpTuM-21" value="" style="shape=flexArrow;endArrow=classic;startArrow=classic;html=1;rounded=0;entryX=0;entryY=0.5;entryDx=0;entryDy=0;" edge="1" parent="1">
          <mxGeometry width="100" height="100" relative="1" as="geometry">
            <mxPoint x="210" y="349.5" as="sourcePoint" />
            <mxPoint x="320" y="349.5" as="targetPoint" />
          </mxGeometry>
        </mxCell>
        <mxCell id="CVVGBSWZRVMv5-ygpTuM-22" value="" style="shape=flexArrow;endArrow=classic;startArrow=classic;html=1;rounded=0;exitX=0.408;exitY=1.075;exitDx=0;exitDy=0;exitPerimeter=0;entryX=0.5;entryY=1;entryDx=0;entryDy=0;" edge="1" parent="1" source="CVVGBSWZRVMv5-ygpTuM-2" target="CVVGBSWZRVMv5-ygpTuM-8">
          <mxGeometry width="100" height="100" relative="1" as="geometry">
            <mxPoint x="310" y="350" as="sourcePoint" />
            <mxPoint x="610" y="385" as="targetPoint" />
            <Array as="points">
              <mxPoint x="370" y="420" />
            </Array>
          </mxGeometry>
        </mxCell>
      </root>
    </mxGraphModel>
  </diagram>
</mxfile>
